<mxfile host="app.diagrams.net" modified="2021-06-05T17:53:16.795Z" agent="5.0 (Windows NT 10.0; Win64; x64) AppleWebKit/537.36 (KHTML, like Gecko) Chrome/91.0.4472.77 Safari/537.36" etag="lc5ejcvU7k51JBgVGv2s" version="14.7.6" type="github">
  <diagram id="ru6Bwzwn6HbUvp8h6mE7" name="Page-1">
    <mxGraphModel dx="2512" dy="762" grid="1" gridSize="10" guides="1" tooltips="1" connect="1" arrows="1" fold="1" page="1" pageScale="1" pageWidth="850" pageHeight="1100" math="0" shadow="0">
      <root>
        <mxCell id="0" />
        <mxCell id="1" parent="0" />
        <mxCell id="5U55PKnecChS-TOLvx-6-1" value="" style="endArrow=none;dashed=1;html=1;rounded=0;edgeStyle=orthogonalEdgeStyle;" parent="1" edge="1">
          <mxGeometry width="50" height="50" relative="1" as="geometry">
            <mxPoint x="-15" y="809.9999999999998" as="sourcePoint" />
            <mxPoint x="-15" y="100" as="targetPoint" />
            <Array as="points">
              <mxPoint x="-15" y="395" />
            </Array>
          </mxGeometry>
        </mxCell>
        <mxCell id="5U55PKnecChS-TOLvx-6-2" value="select customization option" style="edgeStyle=orthogonalEdgeStyle;rounded=0;orthogonalLoop=1;jettySize=auto;html=1;endArrow=block;endFill=1;" parent="1" target="5U55PKnecChS-TOLvx-6-11" edge="1">
          <mxGeometry relative="1" as="geometry">
            <Array as="points">
              <mxPoint x="-10" y="380" />
            </Array>
            <mxPoint x="-10" y="349.9999999999998" as="sourcePoint" />
            <mxPoint x="725" y="350" as="targetPoint" />
          </mxGeometry>
        </mxCell>
        <mxCell id="5U55PKnecChS-TOLvx-6-3" value="" style="points=[];perimeter=orthogonalPerimeter;rounded=0;shadow=0;strokeWidth=1;" parent="1" vertex="1">
          <mxGeometry x="-20" y="140" width="10" height="540" as="geometry" />
        </mxCell>
        <mxCell id="5U55PKnecChS-TOLvx-6-4" value=": DB Handler" style="shape=umlLifeline;perimeter=lifelinePerimeter;container=1;collapsible=0;recursiveResize=0;rounded=0;shadow=0;strokeWidth=1;" parent="1" vertex="1">
          <mxGeometry x="900" y="40" width="100" height="770" as="geometry" />
        </mxCell>
        <mxCell id="5U55PKnecChS-TOLvx-6-5" value=":Main Controller" style="shape=umlLifeline;perimeter=lifelinePerimeter;container=1;collapsible=0;recursiveResize=0;rounded=0;shadow=0;strokeWidth=1;" parent="1" vertex="1">
          <mxGeometry x="318" y="40" width="100" height="770" as="geometry" />
        </mxCell>
        <mxCell id="5U55PKnecChS-TOLvx-6-6" value="" style="points=[];perimeter=orthogonalPerimeter;rounded=0;shadow=0;strokeWidth=1;" parent="5U55PKnecChS-TOLvx-6-5" vertex="1">
          <mxGeometry x="45" y="160" width="10" height="120" as="geometry" />
        </mxCell>
        <mxCell id="5U55PKnecChS-TOLvx-6-7" value="User" style="shape=umlActor;verticalLabelPosition=bottom;verticalAlign=top;html=1;" parent="1" vertex="1">
          <mxGeometry x="-30" y="20" width="30" height="60" as="geometry" />
        </mxCell>
        <mxCell id="5U55PKnecChS-TOLvx-6-8" value=":Customizing&#xa;Controller" style="shape=umlLifeline;perimeter=lifelinePerimeter;container=1;collapsible=0;recursiveResize=0;rounded=0;shadow=0;strokeWidth=1;" parent="1" vertex="1">
          <mxGeometry x="710" y="40" width="100" height="770" as="geometry" />
        </mxCell>
        <mxCell id="5U55PKnecChS-TOLvx-6-9" value="" style="points=[];perimeter=orthogonalPerimeter;rounded=0;shadow=0;strokeWidth=1;" parent="5U55PKnecChS-TOLvx-6-8" vertex="1">
          <mxGeometry x="45" y="180" width="10" height="370" as="geometry" />
        </mxCell>
        <mxCell id="5U55PKnecChS-TOLvx-6-10" value=":Customization&#xa;View" style="shape=umlLifeline;perimeter=lifelinePerimeter;container=1;collapsible=0;recursiveResize=0;rounded=0;shadow=0;strokeWidth=1;" parent="1" vertex="1">
          <mxGeometry x="520" y="40" width="100" height="770" as="geometry" />
        </mxCell>
        <mxCell id="5U55PKnecChS-TOLvx-6-11" value="" style="points=[];perimeter=orthogonalPerimeter;rounded=0;shadow=0;strokeWidth=1;fontStyle=1" parent="5U55PKnecChS-TOLvx-6-10" vertex="1">
          <mxGeometry x="45" y="200" width="10" height="370" as="geometry" />
        </mxCell>
        <mxCell id="5U55PKnecChS-TOLvx-6-12" value=":Character&#xa;Customization Data" style="shape=umlLifeline;perimeter=lifelinePerimeter;container=1;collapsible=0;recursiveResize=0;rounded=0;shadow=0;strokeWidth=1;" parent="1" vertex="1">
          <mxGeometry x="1080" y="40" width="120" height="770" as="geometry" />
        </mxCell>
        <mxCell id="5U55PKnecChS-TOLvx-6-13" style="edgeStyle=orthogonalEdgeStyle;rounded=0;orthogonalLoop=1;jettySize=auto;html=1;endArrow=block;endFill=1;strokeColor=#000000;" parent="1" target="5U55PKnecChS-TOLvx-6-20" edge="1">
          <mxGeometry relative="1" as="geometry">
            <mxPoint x="-10" y="210" as="sourcePoint" />
            <mxPoint x="240" y="200.00000000000023" as="targetPoint" />
            <Array as="points">
              <mxPoint x="120" y="210" />
              <mxPoint x="120" y="210" />
            </Array>
          </mxGeometry>
        </mxCell>
        <mxCell id="5U55PKnecChS-TOLvx-6-14" value="select customBtn" style="edgeLabel;html=1;align=center;verticalAlign=middle;resizable=0;points=[];" parent="5U55PKnecChS-TOLvx-6-13" vertex="1" connectable="0">
          <mxGeometry x="0.1205" y="-1" relative="1" as="geometry">
            <mxPoint x="-10" y="-1" as="offset" />
          </mxGeometry>
        </mxCell>
        <mxCell id="5U55PKnecChS-TOLvx-6-15" value="optionChanged&lt;br&gt;(optionData)" style="edgeStyle=orthogonalEdgeStyle;rounded=0;orthogonalLoop=1;jettySize=auto;html=1;endArrow=open;endFill=0;" parent="1" source="5U55PKnecChS-TOLvx-6-11" target="5U55PKnecChS-TOLvx-6-9" edge="1">
          <mxGeometry relative="1" as="geometry">
            <Array as="points">
              <mxPoint x="610" y="390" />
              <mxPoint x="610" y="390" />
            </Array>
            <mxPoint x="735" y="370" as="sourcePoint" />
          </mxGeometry>
        </mxCell>
        <mxCell id="5U55PKnecChS-TOLvx-6-16" value="return updated Character Image" style="edgeStyle=orthogonalEdgeStyle;rounded=0;orthogonalLoop=1;jettySize=auto;html=1;endArrow=open;endFill=0;dashed=1;" parent="1" source="5U55PKnecChS-TOLvx-6-11" target="5U55PKnecChS-TOLvx-6-3" edge="1">
          <mxGeometry relative="1" as="geometry">
            <Array as="points">
              <mxPoint x="390" y="440" />
              <mxPoint x="390" y="440" />
            </Array>
            <mxPoint x="725" y="570" as="sourcePoint" />
            <mxPoint x="-10" y="570" as="targetPoint" />
          </mxGeometry>
        </mxCell>
        <mxCell id="5U55PKnecChS-TOLvx-6-17" value="acknowledge" style="edgeStyle=orthogonalEdgeStyle;rounded=0;orthogonalLoop=1;jettySize=auto;html=1;dashed=1;endArrow=open;endFill=0;" parent="1" source="5U55PKnecChS-TOLvx-6-11" edge="1">
          <mxGeometry relative="1" as="geometry">
            <Array as="points">
              <mxPoint x="-10" y="590" />
            </Array>
            <mxPoint x="725" y="600" as="sourcePoint" />
            <mxPoint x="-10" y="599.9999999999998" as="targetPoint" />
          </mxGeometry>
        </mxCell>
        <mxCell id="5U55PKnecChS-TOLvx-6-18" value="return customization View" style="edgeStyle=orthogonalEdgeStyle;rounded=0;orthogonalLoop=1;jettySize=auto;html=1;endArrow=open;endFill=0;dashed=1;" parent="1" source="5U55PKnecChS-TOLvx-6-11" target="5U55PKnecChS-TOLvx-6-3" edge="1">
          <mxGeometry relative="1" as="geometry">
            <Array as="points">
              <mxPoint x="140" y="350" />
              <mxPoint x="140" y="350" />
            </Array>
            <mxPoint x="830" y="360" as="sourcePoint" />
            <mxPoint x="40" y="400" as="targetPoint" />
          </mxGeometry>
        </mxCell>
        <mxCell id="5U55PKnecChS-TOLvx-6-19" value=":Main View" style="shape=umlLifeline;perimeter=lifelinePerimeter;container=1;collapsible=0;recursiveResize=0;rounded=0;shadow=0;strokeWidth=1;" parent="1" vertex="1">
          <mxGeometry x="140" y="40" width="100" height="770" as="geometry" />
        </mxCell>
        <mxCell id="5U55PKnecChS-TOLvx-6-20" value="" style="points=[];perimeter=orthogonalPerimeter;rounded=0;shadow=0;strokeWidth=1;" parent="5U55PKnecChS-TOLvx-6-19" vertex="1">
          <mxGeometry x="45" y="150" width="10" height="140" as="geometry" />
        </mxCell>
        <mxCell id="5U55PKnecChS-TOLvx-6-21" value="buttonClicked(customBtn)" style="edgeStyle=orthogonalEdgeStyle;rounded=0;orthogonalLoop=1;jettySize=auto;html=1;endArrow=block;endFill=1;" parent="1" source="5U55PKnecChS-TOLvx-6-20" target="5U55PKnecChS-TOLvx-6-6" edge="1">
          <mxGeometry relative="1" as="geometry">
            <Array as="points">
              <mxPoint x="310" y="220" />
              <mxPoint x="310" y="220" />
            </Array>
          </mxGeometry>
        </mxCell>
        <mxCell id="5U55PKnecChS-TOLvx-6-22" value="acknowledge" style="edgeStyle=orthogonalEdgeStyle;rounded=0;orthogonalLoop=1;jettySize=auto;html=1;endArrow=open;endFill=0;dashed=1;" parent="1" source="5U55PKnecChS-TOLvx-6-6" target="5U55PKnecChS-TOLvx-6-20" edge="1">
          <mxGeometry relative="1" as="geometry">
            <Array as="points">
              <mxPoint x="240" y="310" />
              <mxPoint x="240" y="310" />
            </Array>
          </mxGeometry>
        </mxCell>
        <mxCell id="5U55PKnecChS-TOLvx-6-23" style="edgeStyle=orthogonalEdgeStyle;rounded=0;orthogonalLoop=1;jettySize=auto;html=1;endArrow=block;endFill=1;" parent="1" source="5U55PKnecChS-TOLvx-6-6" target="5U55PKnecChS-TOLvx-6-9" edge="1">
          <mxGeometry relative="1" as="geometry">
            <Array as="points">
              <mxPoint x="550" y="230" />
              <mxPoint x="550" y="230" />
            </Array>
          </mxGeometry>
        </mxCell>
        <mxCell id="5U55PKnecChS-TOLvx-6-24" value="changeView&lt;br&gt;(userId)" style="edgeLabel;html=1;align=center;verticalAlign=middle;resizable=0;points=[];" parent="5U55PKnecChS-TOLvx-6-23" vertex="1" connectable="0">
          <mxGeometry x="-0.1724" y="-3" relative="1" as="geometry">
            <mxPoint x="-21" y="-3" as="offset" />
          </mxGeometry>
        </mxCell>
        <mxCell id="5U55PKnecChS-TOLvx-6-25" style="edgeStyle=orthogonalEdgeStyle;rounded=0;orthogonalLoop=1;jettySize=auto;html=1;endArrow=open;endFill=0;dashed=1;" parent="1" source="5U55PKnecChS-TOLvx-6-11" target="5U55PKnecChS-TOLvx-6-6" edge="1">
          <mxGeometry relative="1" as="geometry">
            <Array as="points">
              <mxPoint x="560" y="300" />
              <mxPoint x="560" y="300" />
            </Array>
          </mxGeometry>
        </mxCell>
        <mxCell id="5U55PKnecChS-TOLvx-6-26" value="acknowledge" style="edgeLabel;html=1;align=center;verticalAlign=middle;resizable=0;points=[];" parent="5U55PKnecChS-TOLvx-6-25" vertex="1" connectable="0">
          <mxGeometry x="0.0114" relative="1" as="geometry">
            <mxPoint as="offset" />
          </mxGeometry>
        </mxCell>
        <mxCell id="5U55PKnecChS-TOLvx-6-27" style="edgeStyle=orthogonalEdgeStyle;rounded=0;orthogonalLoop=1;jettySize=auto;html=1;endArrow=open;endFill=0;dashed=1;" parent="1" source="5U55PKnecChS-TOLvx-6-11" target="5U55PKnecChS-TOLvx-6-9" edge="1">
          <mxGeometry relative="1" as="geometry">
            <Array as="points">
              <mxPoint x="610" y="280" />
              <mxPoint x="610" y="280" />
            </Array>
          </mxGeometry>
        </mxCell>
        <mxCell id="5U55PKnecChS-TOLvx-6-28" value="acknowledge" style="edgeLabel;html=1;align=center;verticalAlign=middle;resizable=0;points=[];" parent="5U55PKnecChS-TOLvx-6-27" vertex="1" connectable="0">
          <mxGeometry x="-0.0625" y="-1" relative="1" as="geometry">
            <mxPoint as="offset" />
          </mxGeometry>
        </mxCell>
        <mxCell id="5U55PKnecChS-TOLvx-6-29" value="select SaveButton" style="edgeStyle=orthogonalEdgeStyle;rounded=0;orthogonalLoop=1;jettySize=auto;html=1;endArrow=block;endFill=1;" parent="1" target="5U55PKnecChS-TOLvx-6-11" edge="1">
          <mxGeometry x="0.1348" relative="1" as="geometry">
            <Array as="points">
              <mxPoint x="-10" y="470" />
            </Array>
            <mxPoint x="-10" y="599.9999999999998" as="sourcePoint" />
            <mxPoint x="725" y="600" as="targetPoint" />
            <mxPoint as="offset" />
          </mxGeometry>
        </mxCell>
        <mxCell id="5U55PKnecChS-TOLvx-6-30" value="change view" style="edgeStyle=orthogonalEdgeStyle;rounded=0;orthogonalLoop=1;jettySize=auto;html=1;endArrow=open;endFill=0;" parent="1" source="5U55PKnecChS-TOLvx-6-9" target="5U55PKnecChS-TOLvx-6-11" edge="1">
          <mxGeometry relative="1" as="geometry">
            <Array as="points">
              <mxPoint x="720" y="260" />
              <mxPoint x="720" y="260" />
            </Array>
          </mxGeometry>
        </mxCell>
        <mxCell id="5U55PKnecChS-TOLvx-6-31" style="edgeStyle=orthogonalEdgeStyle;rounded=0;orthogonalLoop=1;jettySize=auto;html=1;dashed=1;endArrow=open;endFill=0;" parent="1" source="5U55PKnecChS-TOLvx-6-9" target="5U55PKnecChS-TOLvx-6-11" edge="1">
          <mxGeometry relative="1" as="geometry">
            <Array as="points">
              <mxPoint x="730" y="420" />
              <mxPoint x="730" y="420" />
            </Array>
          </mxGeometry>
        </mxCell>
        <mxCell id="5U55PKnecChS-TOLvx-6-32" value="update customOptionList" style="edgeLabel;html=1;align=center;verticalAlign=middle;resizable=0;points=[];" parent="5U55PKnecChS-TOLvx-6-31" vertex="1" connectable="0">
          <mxGeometry x="-0.1" y="1" relative="1" as="geometry">
            <mxPoint x="-14" as="offset" />
          </mxGeometry>
        </mxCell>
        <mxCell id="5U55PKnecChS-TOLvx-6-33" style="edgeStyle=orthogonalEdgeStyle;rounded=0;orthogonalLoop=1;jettySize=auto;html=1;endArrow=open;endFill=0;" parent="1" source="5U55PKnecChS-TOLvx-6-37" target="5U55PKnecChS-TOLvx-6-42" edge="1">
          <mxGeometry relative="1" as="geometry">
            <Array as="points">
              <mxPoint x="1040" y="510" />
              <mxPoint x="1040" y="510" />
            </Array>
          </mxGeometry>
        </mxCell>
        <mxCell id="5U55PKnecChS-TOLvx-6-34" value="setCustom&lt;br&gt;(customOptionList)" style="edgeLabel;html=1;align=center;verticalAlign=middle;resizable=0;points=[];" parent="5U55PKnecChS-TOLvx-6-33" vertex="1" connectable="0">
          <mxGeometry x="-0.0111" y="2" relative="1" as="geometry">
            <mxPoint as="offset" />
          </mxGeometry>
        </mxCell>
        <mxCell id="5U55PKnecChS-TOLvx-6-35" style="edgeStyle=orthogonalEdgeStyle;rounded=0;orthogonalLoop=1;jettySize=auto;html=1;dashed=1;endArrow=open;endFill=0;" parent="1" source="5U55PKnecChS-TOLvx-6-37" target="5U55PKnecChS-TOLvx-6-9" edge="1">
          <mxGeometry relative="1" as="geometry">
            <Array as="points">
              <mxPoint x="900" y="560" />
              <mxPoint x="900" y="560" />
            </Array>
          </mxGeometry>
        </mxCell>
        <mxCell id="5U55PKnecChS-TOLvx-6-36" value="acknowledge" style="edgeLabel;html=1;align=center;verticalAlign=middle;resizable=0;points=[];" parent="5U55PKnecChS-TOLvx-6-35" vertex="1" connectable="0">
          <mxGeometry x="0.0667" y="2" relative="1" as="geometry">
            <mxPoint as="offset" />
          </mxGeometry>
        </mxCell>
        <mxCell id="5U55PKnecChS-TOLvx-6-37" value="" style="points=[];perimeter=orthogonalPerimeter;rounded=0;shadow=0;strokeWidth=1;" parent="1" vertex="1">
          <mxGeometry x="945" y="480" width="10" height="100" as="geometry" />
        </mxCell>
        <mxCell id="5U55PKnecChS-TOLvx-6-38" style="edgeStyle=orthogonalEdgeStyle;rounded=0;orthogonalLoop=1;jettySize=auto;html=1;endArrow=block;endFill=1;" parent="1" source="5U55PKnecChS-TOLvx-6-9" target="5U55PKnecChS-TOLvx-6-37" edge="1">
          <mxGeometry relative="1" as="geometry">
            <Array as="points">
              <mxPoint x="900" y="500" />
              <mxPoint x="900" y="500" />
            </Array>
          </mxGeometry>
        </mxCell>
        <mxCell id="5U55PKnecChS-TOLvx-6-39" value="saveCustom(userid,&lt;br&gt;customOptionList)" style="edgeLabel;html=1;align=center;verticalAlign=middle;resizable=0;points=[];" parent="5U55PKnecChS-TOLvx-6-38" vertex="1" connectable="0">
          <mxGeometry x="-0.0889" y="-3" relative="1" as="geometry">
            <mxPoint as="offset" />
          </mxGeometry>
        </mxCell>
        <mxCell id="5U55PKnecChS-TOLvx-6-40" style="edgeStyle=orthogonalEdgeStyle;rounded=0;orthogonalLoop=1;jettySize=auto;html=1;endArrow=open;endFill=0;dashed=1;" parent="1" source="5U55PKnecChS-TOLvx-6-42" target="5U55PKnecChS-TOLvx-6-37" edge="1">
          <mxGeometry relative="1" as="geometry">
            <Array as="points">
              <mxPoint x="1040" y="540" />
              <mxPoint x="1040" y="540" />
            </Array>
          </mxGeometry>
        </mxCell>
        <mxCell id="5U55PKnecChS-TOLvx-6-41" value="acknowledge" style="edgeLabel;html=1;align=center;verticalAlign=middle;resizable=0;points=[];" parent="5U55PKnecChS-TOLvx-6-40" vertex="1" connectable="0">
          <mxGeometry x="0.1333" y="2" relative="1" as="geometry">
            <mxPoint x="7" as="offset" />
          </mxGeometry>
        </mxCell>
        <mxCell id="5U55PKnecChS-TOLvx-6-42" value="" style="points=[];perimeter=orthogonalPerimeter;rounded=0;shadow=0;strokeWidth=1;" parent="1" vertex="1">
          <mxGeometry x="1135" y="490" width="10" height="70" as="geometry" />
        </mxCell>
        <mxCell id="5U55PKnecChS-TOLvx-6-43" style="edgeStyle=orthogonalEdgeStyle;rounded=0;orthogonalLoop=1;jettySize=auto;html=1;dashed=1;endArrow=open;endFill=0;" parent="1" source="5U55PKnecChS-TOLvx-6-9" target="5U55PKnecChS-TOLvx-6-11" edge="1">
          <mxGeometry relative="1" as="geometry">
            <Array as="points">
              <mxPoint x="710" y="570" />
              <mxPoint x="710" y="570" />
            </Array>
          </mxGeometry>
        </mxCell>
        <mxCell id="5U55PKnecChS-TOLvx-6-44" value="acknowledge" style="edgeLabel;html=1;align=center;verticalAlign=middle;resizable=0;points=[];" parent="5U55PKnecChS-TOLvx-6-43" vertex="1" connectable="0">
          <mxGeometry x="-0.2778" y="-1" relative="1" as="geometry">
            <mxPoint x="-30" as="offset" />
          </mxGeometry>
        </mxCell>
        <mxCell id="5U55PKnecChS-TOLvx-6-45" value="saveOption(customOptionList)" style="edgeStyle=orthogonalEdgeStyle;rounded=0;orthogonalLoop=1;jettySize=auto;html=1;endArrow=block;endFill=1;" parent="1" source="5U55PKnecChS-TOLvx-6-11" target="5U55PKnecChS-TOLvx-6-9" edge="1">
          <mxGeometry relative="1" as="geometry">
            <Array as="points">
              <mxPoint x="610" y="490" />
              <mxPoint x="610" y="490" />
            </Array>
          </mxGeometry>
        </mxCell>
      </root>
    </mxGraphModel>
  </diagram>
</mxfile>
